<?xml version="1.0" encoding="utf-8"?>
<!-- Generator: Adobe Illustrator 22.1.0, SVG Export Plug-In . SVG Version: 6.00 Build 0)  -->
<svg version="1.1" id="Layer_1" xmlns="http://www.w3.org/2000/svg" xmlns:xlink="http://www.w3.org/1999/xlink" x="0px" y="0px"
	 viewBox="0 0 512 512" style="enable-background:new 0 0 512 512;" xml:space="preserve">
<style type="text/css">
	.st0{fill:#FFF7DE;}
	.st1{fill:#DD7928;}
</style>
<g>
	<path class="st0" d="M214,170.1c-3.5,2.1-5.5,5.5-5.5,13.2v142.2c0,5.5,1.4,10.4,4.2,13.9c2.1,2.8,5.5,4.9,11.1,4.9h38.2
		c18,0,34.7-8.3,48.6-25c14.6-18,18-48.6,18-68c0-22.9-2.8-43-18.7-61c-13.9-16-29.8-21.5-52.7-22.2h-27.7
		C222.4,168,217.5,168,214,170.1L214,170.1z M134.9,134h130.4c46.5,0,76.3,17.3,95,40.9c18,22.9,25,51.3,25,74.2
		c0,39.5-13.2,72.1-34.7,94.3c-22.2,22.2-53.4,34-89.5,34h-72.8c-10.4,0-19.4-0.7-36.1-0.7c-8.3,0.7-11.8,0.7-16.6,3.5
		c0,0-15.3,10.4-15.3,9c2.1-6.9,6.2-16,11.1-20.8c6.9-6.9,9-8.3,13.9-12.5c8.3-7.6,9-13.9,9-31.2V168.7c0-5.5-0.7-9-1.4-11.1
		c-2.8-7.6-2.8-13.9-21.5-22.2c-2.1-0.7-5.5-2.1-5.5-2.1C130.1,133.3,132.9,134,134.9,134z"/>
	<path class="st1" d="M241.1,428.2c-8.3-1.4-47.9-4.9-58.3-36.1c-2.8,0-5.5,0-9,0c-6.2,0-13.2,0-22.2,0c-6.9,0-7.6,0.7-9,1.4
		c-1.4,0.7-4.2,2.8-6.9,4.9c-2.1,1.4-4.2,2.8-5.5,3.5c-1.4,0.7-5.5,3.5-10.4,3.5c-2.8,0-5.5-0.7-8.3-2.8c-4.9-3.5-6.9-9.7-5.5-15.3
		c2.8-9.7,8.3-20.1,14.6-27.1l0,0c4.9-4.9,7.6-7.6,10.4-10.4c0.7-0.7,2.1-2.1,3.5-2.8l0,0c3.5-2.8,4.2-3.5,4.2-20.8V168.7
		c0-3.5,0-5.5-0.7-6.9c0-0.7-0.7-2.1-0.7-2.8c-0.7-2.8-1.4-3.5-2.1-4.9c-0.7-1.4-3.5-3.5-11.1-6.2c-0.7,0-2.1-0.7-3.5-1.4
		c-6.9-2.1-11.1-8.3-10.4-16c0.7-6.9,6.9-12.5,13.9-12.5c2.1,0,4.2,0,6.2,0c1.4,0,2.1,0,2.8,0h49.3c3.5-10.4,9-22.2,19.4-28.4
		c21.5-11.8,20.8-18,20.8-18S80.1,102.1,8,20.3C32.3,57.7,82.2,104.9,82.2,141s0,234.5,0,234.5s2.1,48.6-60.4,52
		c-4.2,2.8-2.1,6.9-0.7,6.9c4.2,0,219.2,0,219.2,0S245.2,432.3,241.1,428.2z"/>
	<path class="st1" d="M489.4,427.5c-62.4-3.5-60.4-52-60.4-52s0-197.7,0-234.5S479,57.7,504,19.6c-72.8,82.6-216.4,54.1-216.4,54.1
		s-0.7,6.2,20.8,18c15.3,8.3,20.1,28.4,22.2,40.2c20.8,9,35.4,22.2,44.4,34l0,0c18,22.9,28.4,53.4,28.4,83.2
		c0,42.3-13.2,78.4-38.8,104.7l0,0c-9.7,9.7-20.8,17.3-33.3,23.6c-1.4,45.1-51.3,49.3-61,50.6c-4.2,4.2,0,5.5,0,5.5s215.7,0,219.2,0
		C491.5,433.7,493.6,430.3,489.4,427.5z"/>
</g>
</svg>
