<?xml version="1.0" encoding="utf-8"?>
<!-- Generator: Adobe Illustrator 22.1.0, SVG Export Plug-In . SVG Version: 6.00 Build 0)  -->
<svg version="1.1" id="Layer_1" xmlns="http://www.w3.org/2000/svg" xmlns:xlink="http://www.w3.org/1999/xlink" x="0px" y="0px"
	 viewBox="0 0 512 512" style="enable-background:new 0 0 512 512;" xml:space="preserve">
<style type="text/css">
	.st0{fill:#593810;}
	.st1{fill:#FF9C00;}
	.st2{fill:#39CCFF;}
</style>
<g>
	<circle class="st0" cx="256.7" cy="256" r="138.3"/>
	<g>
		<path class="st1" d="M400.3,311.8L494,256l-93.7-55.8c-4.7-12-10.6-22.6-17.9-33.2l21.3-59.2L345.1,129
			c-10-7.3-21.3-13.3-33.2-17.9L256,18l-55.8,93.7c-12,4.7-22.6,10.6-33.2,17.9l-58.5-21.3l21.3,58.5c-7.3,10-13.3,21.3-17.9,33.2
			L18,256l93.7,55.8c4.7,12,10.6,22.6,17.9,33.2l-21.3,59.2l58.5-21.3c10,7.3,21.3,13.3,33.2,17.9L256,494l55.8-93.7
			c12-4.7,22.6-10.6,33.2-17.9l59.2,21.3L383,345.1C390.3,335.1,396.3,323.8,400.3,311.8z M256,384.3
			c-70.5,0-128.3-57.2-128.3-128.3S185.5,127.7,256,127.7S384.3,185.5,384.3,256l0,0C384.3,326.5,326.5,384.3,256,384.3L256,384.3
			L256,384.3z"/>
		<path class="st2" d="M341.8,252.7c0.7-6-4.7-12-5.3-18.6c0-3.3-1.3-6.6-2.7-10c-1.3-3.3-1.3-6.6-2-9.3h-0.7
			c4-8-7.3-17.3-12.6-23.3c-6.6-6.6-10-15.3-19.9-18.6c-4.7-2-9.3-4.7-14.6-6.6c-4.7-2-10-3.3-14-4.7c-4.7-2-8-6-13.3-5.3
			c-5.3,0.7-8,4-14,2.7c-12-4-20.6,2.7-29.9,9.3c-4.7,3.3-9.3,6-13.3,9.3c-1.3,1.3-2.7,3.3-4,5.3c-1.3,2-4,3.3-5.3,6
			c-2.7,4-6.6,6.6-10.6,9.3c-2,1.3-3.3,4-6,5.3c-3.3,2-4,1.3-4,5.3c0,5.3,2.7,9.3,2.7,14c0,2.7,0,5.3,0,8c0.7,2.7,1.3,4.7,2,7.3
			c1.3,4.7,0,10,2,14c2.7,4,5.3,8.6,8.6,12c3.3,4,6.6,8.6,10,13.3c2,2.7,9.3,6.6,9.3,10.6c5.3,1.3,6.6,7.3,11.3,7.3
			c2.7-0.7,5.3-0.7,7.3,0c2.7,0.7,4.7,1.3,7.3,2c4.7,0,8-4,12.6-5.3c4.7-1.3,10,0,14.6-2c8.6-5.3,14-14.6,14.6-24.6
			c0-5.3-1.3-10.6-4.7-14.6c-2.7-4.7-0.7-10-5.3-12.6c-4.7-2-10-4-16-4c-5.3-2-10.6-1.3-16,0.7c-8.6,6,10.6,19.9,0.7,24.6
			c-11.3,4.7-17.3-8-19.9-16.6c-1.3-5.3-1.3-11.3,0-16.6c0-2.7,0.7-4.7,1.3-7.3c1.3-2,4-3.3,6-4c4-2.7,7.3-6.6,11.3-9.3
			s9.3-4.7,14-6c6-1.3,12-1.3,17.9-1.3c2.7,0,5.3,0.7,8,0.7s4.7-1.3,7.3-1.3c4,0,2.7,1.3,2.7,4.7c0,2,1.3,4,2.7,6c3.3,4,6,8,9.3,12
			c6.6,8,5.3,20.6,4.7,30.6c-0.7,5.3,0,10.6,1.3,16c2,6-2.7,6-6.6,9.3c-2.7,4-5.3,8-7.3,12c-3.3,4-6.6,7.3-10.6,10
			c-3.3,3.3-7.3,6-10.6,8.6c-4.7,2.7-9.3,5.3-14,7.3c-5.3,2-11.3,3.3-16.6,4.7c-2.7,0.7-5.3,1.3-8,2.7c-2,1.3-3.3,4-6,5.3
			c-6.6,4-14,3.3-21.3,6.6c-4,2-17.3,2.7-17.9,7.3h-0.7c2,4,6,7.3,10.6,8c4.7,0.7,9.3,2,13.3,3.3c4.7,2,8.6,2.7,13.3,3.3
			c4.7,0,8.6,2.7,13.3,3.3c5.3,0.7,9.3-3.3,14-4c5.3-0.7,10.6-0.7,16-1.3c5.3-0.7,10-2,15.3-3.3c4.7-2,9.3-2,14-4
			c4.7-2,8.6-4,12.6-6.6c4-2.7,4.7-7.3,8.6-10c4-2.7,7.3-5.3,10.6-8.6c2.7-4,4.7-8.6,5.3-13.3c2-4,4.7-8,7.3-11.3
			c2-4.7,4-9.3,4.7-14c2-4.7,2-9.3,2-14.6c-0.7-2.7-3.3-4-2-7.3C340.4,256.7,341.1,254.7,341.8,252.7z"/>
	</g>
</g>
</svg>
