<?xml version="1.0" encoding="utf-8"?>
<!-- Generator: Adobe Illustrator 22.1.0, SVG Export Plug-In . SVG Version: 6.00 Build 0)  -->
<svg version="1.1" id="Layer_1" xmlns="http://www.w3.org/2000/svg" xmlns:xlink="http://www.w3.org/1999/xlink" x="0px" y="0px"
	 viewBox="0 0 512 512" style="enable-background:new 0 0 512 512;" xml:space="preserve">
<style type="text/css">
	.st0{fill:#418AF2;}
	.st1{fill:#FFFFFF;}
	.st2{fill:#36AEEA;}
</style>
<g>
	<g>
		<polygon class="st0" points="422.6,352.8 256,449.6 89.4,352.8 89.4,160.6 256,63.8 422.6,160.6 		"/>
		<polygon class="st1" points="256,46 69.5,150.6 69.5,360.6 256,466 442.5,360.6 442.5,150.6 		"/>
	</g>
	<path class="st2" d="M104.4,239.6c12.1-99.7,98.9-126.7,98.9-126.7c-116,123.9,22.8,212.1,22.8,212.1l-94,20.6
		C132.8,345.7,99.4,305.8,104.4,239.6z"/>
	<path class="st2" d="M315.8,397.7c-99.7,36.3-158-27.1-158-27.1c163,41.3,174.4-123.9,174.4-123.9l62.6,71.9
		C394.8,318.6,377,369.9,315.8,397.7z"/>
	<path class="st2" d="M404.8,284.5c-49.8-163-190.1-85.4-190.1-85.4l29.9-94.7c0,0,59.8-7.8,113.9,38.4
		C424.7,200.5,404.8,284.5,404.8,284.5z"/>
</g>
</svg>
