<?xml version="1.0" encoding="utf-8"?>
<!-- Generator: Adobe Illustrator 22.1.0, SVG Export Plug-In . SVG Version: 6.00 Build 0)  -->
<svg version="1.1" id="Layer_1" xmlns="http://www.w3.org/2000/svg" xmlns:xlink="http://www.w3.org/1999/xlink" x="0px" y="0px"
	 viewBox="0 0 512 512" style="enable-background:new 0 0 512 512;" xml:space="preserve">
<style type="text/css">
	.st0{fill:#2C2F32;}
	.st1{fill:#F1BD37;}
	.st2{fill:#D94020;}
</style>
<g>
	<path class="st0" d="M473.5,154c4.5-7.1,0-19.4,0.6-27.9c1.3-8.4,15.6-29.2,14.3-37.6c-7.1,0.6-18.8,1.9-31.1,0
		c-13-1.3-45.4,4.5-57,9.7c-11.7,5.2,2.6-4.5-6.5-8.4c-9.1-3.2-46,11.7-46,11.7l-35.6-2.6l-55.7,5.8l0,0l0,0l0,0l0,0l0,0l0,0
		l-56.4-5.2l-35.6,2.6c0,0-36.9-15.6-46-11.7c-9.1,3.2,5.8,13-6.5,8.4c-11.7-5.2-44.1-11-57-9.7s-24,0.6-31.1,0
		c-1.3,7.8,13.6,29.2,14.3,37.6c1.3,8.4-3.9,20.7,0.6,27.9c4.5,7.1-3.2,11-3.2,19.4c0,8.4,17.5,20.7,15.6,27.9
		c-1.9,6.5-2.6,21.4,0,33.7c2.6,12.3,9.1,34.4,7.1,44.7c-1.9,9.7-8.4,29.8-7.1,34.4c1.3,4.5,1.9,8.4,1.9,14.9
		c0,5.8,6.5,22.7,5.2,30.5s1.9,20.7,0.6,24.6c-1.3,3.9-9.1,22-1.9,20.1c6.5-1.9,48-3.2,61.6-3.2c6.5,0,35.6,3.2,68.1,3.2
		c18.1,0,15.6-0.6,31.8-2.6c5.8,2.6,32.4,2.6,35,1.9c0.6,0,1.9-0.6,3.2-0.6c1.3,0,1.9,0.6,3.2,0.6c2.6,0.6,28.5,0.6,35-1.9
		c16.2,1.9,13.6,2.6,31.8,2.6c32.4,0.6,61.6-3.2,68.1-3.2c14.3,0,55.1,0.6,61.6,3.2c6.5,1.9-1.3-15.6-1.9-20.1
		c-1.3-3.9,2.6-16.9,0.6-24.6c-1.3-7.8,5.2-24.6,5.2-30.5c0-5.8,0.6-10.4,1.9-14.9c1.3-4.5-5.8-24.6-7.1-34.4
		c-1.9-9.7,4.5-31.8,7.1-44.7c2.6-12.3,1.9-27.2,0-33.7c-1.9-6.5,15.6-19.4,15.6-27.9C477.4,165,468.9,161.1,473.5,154z"/>
	<path class="st1" d="M120.2,127.4H198c-1.9,8.4-2.6,17.5-2.6,26.6c3.2,34.4,25.9,129.6,25.9,129.6l36.9-148.4l36.9,145.2
		c0,0,22.7-127.7,22.7-136.1c-0.6-6.5-3.9-12.3-9.1-16.2h81.7c-11,10.4-18.8,22.7-23.3,36.9c-7.1,27.9-32.4,169.8-32.4,178.9
		c0.6,9.1,3.9,18.1,9.7,25.3h-75.8c1.9-6.5,2.6-13.6,2.6-20.7c0-13-12.3-74.5-12.3-74.5s-15.6,63.5-15.6,75.2
		c0,7.1,1.9,13.6,5.2,20.1h-79.1c0,0,14.9-10.4,14.3-20.7c-1.9-29.2-42.1-179.5-45.4-191.2C136.4,145.6,129.9,134.5,120.2,127.4z"/>
	<g>
		<path class="st2" d="M149.4,406.8c0-2.6,0-71.3,0-114.1l0,0c0,0,0-15.6,0-38.9c-7.1-29.2-14.9-57.7-18.8-74.5
			c-2.6-11-4.5-17.5-5.2-19.4v-0.6c-1.3-8.4-6.5-15.6-13-20.7c-5.2-3.2-7.1-9.7-5.2-15.6c1.9-5.8,7.1-9.7,13.6-9.7H150
			c0-14.9,0-24.6,0-25.9c0-5.8,14.3-19.4,20.1-23.3V60h-1.3h-49.3h-0.6h-2.6h-2.6h-0.6H63.8h-1.9v3.9C67.1,67.8,82,81.4,82,87.2
			c0,2.6,0,41.5,0,84.3l0,0c0,0,0,228.8,0,235.3c0,5.8-14.3,19.4-20.1,23.3v3.9h1.3h49.3h0.6h2.6h2.6h0.6h49.3h1.3v-3.9
			C163.6,426.2,149.4,412.6,149.4,406.8z"/>
		<g>
			<path class="st2" d="M288.7,406.8c0-1.3,0-10.4,0-23.3h-20.1c-3.9,0-7.1-5.2-9.7-7.8c-2.6,2.6-6.5,7.8-9.7,7.8h-26.6
				c0,13.6,0,22,0,23.3c0,5.8-14.3,19.4-20.1,23.3v3.9h1.3h49.3h0.6h2.6h2.6h0.6h49.3h1.3v-3.9C303.6,426.2,288.7,412.6,288.7,406.8
				z"/>
			<path class="st2" d="M221.3,87.2c0,2.6,0,41.5,0,84.3l0,0c0,0,0,20.7,0,49.9l22-90.1c1.3-6.5,7.1-10.4,13.6-10.4l0,0
				c6.5,0,11.7,4.5,13.6,10.4l22,90.1c0-52.5-4.5-130.9-4.5-134.2c0-5.8,14.3-19.4,20.1-23.3V60h-1.3h-49.3H257h-2.6h-2.6h-0.6
				h-49.3h-1.3v3.9C207.1,68.4,221.3,82,221.3,87.2z"/>
		</g>
		<path class="st2" d="M428.1,292.7c0,0,0-199,0-205.5c0-5.8,14.3-19.4,20.1-23.3V60h-1.3h-49.3H397h-2.6h-1.9h-0.6h-49.3h-1.3v3.9
			c5.2,3.9,20.1,17.5,20.1,23.3c0,1.3,0,11,0,25.9h29.2c5.8,0,11,3.2,13,9.1c1.9,5.2,0.6,11.7-3.2,15.6
			c-9.1,8.4-15.6,18.8-18.8,30.5c-3.9,15.6-12.3,60.3-19.4,101.1c0,62.9,0,133.5,0,137.4c0,5.8-14.3,19.4-20.1,23.3v3.9h1.3h49.3
			l0,0h2.6h2.6h0.6h49.3h1.3v-3.9c-5.2-3.9-20.1-17.5-20.1-23.3C428.1,404.2,428.1,335.5,428.1,292.7L428.1,292.7z"/>
	</g>
</g>
</svg>
